<svg xmlns="http://www.w3.org/2000/svg" width="105" height="105" viewBox="0 0 105 105">
  <g id="services-icon1" transform="translate(-516 -1157)">
    <circle id="Ellipse_1" data-name="Ellipse 1" cx="52.5" cy="52.5" r="52.5" transform="translate(516 1157)" fill="#6785ff"/>
    <g id="tshirt" transform="translate(543.179 1181.538)">
      <g id="Group_1" data-name="Group 1" transform="translate(0 0)">
        <path id="Path_19" data-name="Path 19" d="M76.765,22.32,69.8,7.061a5.708,5.708,0,0,0-2.984-3.073l-7.7-3.87a1.106,1.106,0,0,0-.783-.08,22.673,22.673,0,0,1-13.8,0,1.105,1.105,0,0,0-.783.08l-7.7,3.87a5.708,5.708,0,0,0-2.984,3.073L26.1,22.32a1.106,1.106,0,0,0,.42,1.4l8.327,5.2V55.51a1.106,1.106,0,0,0,1.106,1.106H66.913a1.106,1.106,0,0,0,1.106-1.106V28.921l8.327-5.2a1.106,1.106,0,0,0,.42-1.4ZM57.315,2.573a6.257,6.257,0,0,1-11.764,0A23.407,23.407,0,0,0,57.315,2.573Zm10.7,23.74V19.462a1.106,1.106,0,1,0-2.212,0V54.4H37.057V19.462a1.106,1.106,0,1,0-2.212,0v6.851l-6.332-3.957L35.081,7.98a3.546,3.546,0,0,1,1.966-2.016L39.3,4.831a12.483,12.483,0,0,0,6.818,7.183A1.106,1.106,0,1,0,47,9.985a10.236,10.236,0,0,1-5.7-6.157l2.034-1.023a8.433,8.433,0,0,0,16.21,0l2.034,1.023a10.235,10.235,0,0,1-5.7,6.157,1.106,1.106,0,1,0,.88,2.029,12.482,12.482,0,0,0,6.819-7.184l2.253,1.133A3.546,3.546,0,0,1,67.784,7.98l6.567,14.376Z" transform="translate(-25.999 0)" fill="#fff"/>
        <path id="Path_20" data-name="Path 20" d="M247.1,98.561h0a1.106,1.106,0,1,0,1.107,1.106A1.105,1.105,0,0,0,247.1,98.561Z" transform="translate(-221.67 -87.662)" fill="#fff"/>
      </g>
    </g>
  </g>
</svg>
