<svg xmlns="http://www.w3.org/2000/svg" width="105" height="105" viewBox="0 0 105 105">
  <g id="services-icon2" transform="translate(-908 -1157)">
    <circle id="Ellipse_2" data-name="Ellipse 2" cx="52.5" cy="52.5" r="52.5" transform="translate(908 1157)" fill="#6785ff"/>
    <g id="XMLID_1007_" transform="translate(929 1178)">
      <g id="XMLID_543_" transform="translate(0 0)">
        <path id="XMLID_544_" d="M122.714,19.751a6.716,6.716,0,0,0-3.15-4.105l-7.914-4.569a1.244,1.244,0,1,0-1.244,2.155L118.32,17.8a4.273,4.273,0,0,1,1.564,5.837L113.6,34.515V25.646a3.954,3.954,0,0,0-5.419-3.672V18.6a3.954,3.954,0,0,0-5.479-3.648,3.954,3.954,0,0,0-7.788,0A3.954,3.954,0,0,0,89.438,18.6V33.65l-1.381-2.155a4.436,4.436,0,0,0-8,3.612l.1.362a28.493,28.493,0,0,0,2.2,5.469L73.79,35.989a4.278,4.278,0,0,1-1.564-5.837L86.961,4.63A4.273,4.273,0,0,1,92.8,3.066l7.914,4.569a1.244,1.244,0,0,0,1.244-2.155L94.042.911a6.761,6.761,0,0,0-9.235,2.475l-.786,1.361a36.344,36.344,0,0,0-9.357-1.42h-.026a1.244,1.244,0,0,0-.025,2.488,33.869,33.869,0,0,1,8.123,1.157L74.5,21.241a18.04,18.04,0,0,0-5.559-.978,1.244,1.244,0,1,0-.044,2.487,15.58,15.58,0,0,1,4.333.692l-3.155,5.465a6.769,6.769,0,0,0,2.475,9.235l12.866,7.428a28.6,28.6,0,0,0,5.1,4.931V62.451a1.244,1.244,0,0,0,2.488,0V49.871a1.244,1.244,0,0,0-.521-1.012,26.228,26.228,0,0,1-9.928-14.075l-.1-.362a1.948,1.948,0,0,1,3.513-1.586l3.672,5.732a1.244,1.244,0,0,0,2.291-.671V32.746c0-.008,0-.016,0-.025V18.6a1.466,1.466,0,0,1,2.932,0V30.278a1.244,1.244,0,1,0,2.488,0V15.634a1.466,1.466,0,0,1,2.932,0V30.278a1.244,1.244,0,0,0,2.488,0V18.6a1.466,1.466,0,1,1,2.931,0V30.278a1.244,1.244,0,0,0,2.488,0V25.646a1.466,1.466,0,1,1,2.931,0v10.2a18.65,18.65,0,0,1-5.444,13.117,1.244,1.244,0,0,0-.366.881v12.61a1.244,1.244,0,0,0,2.488,0v-12.1a20.847,20.847,0,0,0,5.336-10.037l8.908-15.43a6.715,6.715,0,0,0,.676-5.13Z" transform="translate(-59.254 -0.003)" fill="#fff"/>
        <path id="XMLID_563_" d="M1.248,34.677a1.239,1.239,0,0,0,.476-.1A33.787,33.787,0,0,1,9.542,32.4a1.244,1.244,0,1,0-.376-2.459A36.261,36.261,0,0,0,.771,32.284a1.244,1.244,0,0,0,.477,2.393Z" transform="translate(-0.003 -26.203)" fill="#fff"/>
        <path id="XMLID_564_" d="M1.246,102.208a1.239,1.239,0,0,0,.473-.094,24.58,24.58,0,0,1,12.329-1.656,1.244,1.244,0,1,0,.3-2.469A27.067,27.067,0,0,0,.772,99.813a1.244,1.244,0,0,0,.474,2.395Z" transform="translate(-0.001 -85.623)" fill="#fff"/>
        <path id="XMLID_565_" d="M3.093,171.285A18.041,18.041,0,0,0,.645,172.4a1.244,1.244,0,1,0,1.2,2.18,15.554,15.554,0,0,1,2.109-.962,1.244,1.244,0,0,0-.86-2.335Z" transform="translate(0 -149.911)" fill="#fff"/>
        <path id="XMLID_566_" d="M368.488,67.677a1.244,1.244,0,1,0-.879-.364A1.256,1.256,0,0,0,368.488,67.677Z" transform="translate(-321.561 -57.079)" fill="#fff"/>
      </g>
    </g>
  </g>
</svg>
