<svg xmlns="http://www.w3.org/2000/svg" width="105" height="105" viewBox="0 0 105 105">
  <g id="services-icon3" transform="translate(-1300 -1157)">
    <circle id="services-icon3-2" data-name="services-icon3" cx="52.5" cy="52.5" r="52.5" transform="translate(1300 1157)" fill="#6785ff"/>
    <g id="open" transform="translate(1319 1182)">
      <path id="Path_15" data-name="Path 15" d="M29.571,57.182a1.245,1.245,0,0,1-.284-.03L3.09,51.633a1.382,1.382,0,0,1-1.1-1.349V25.446a1.38,1.38,0,1,1,2.76,0V49.163L28.191,54.1V3.609a1.351,1.351,0,0,1,.378-1.189,1.4,1.4,0,0,1,1.518-.312,1.375,1.375,0,0,1,.864,1.261V55.8a1.381,1.381,0,0,1-1.38,1.38Z" transform="translate(3.51 -1.986)" fill="#fff"/>
      <path id="Path_16" data-name="Path 16" d="M12.887,56.753a1.381,1.381,0,0,1-1.38-1.38V3.63a1.38,1.38,0,0,1,2.76,0V53.673L37.7,48.733V25.017a1.38,1.38,0,0,1,2.76,0V49.854a1.382,1.382,0,0,1-1.1,1.349l-26.2,5.519a1.245,1.245,0,0,1-.284.03Z" transform="translate(20.249 -1.556)" fill="#fff"/>
      <path id="Path_17" data-name="Path 17" d="M44.61,26.838H22.528a1.381,1.381,0,0,1-1.264-.828L11.619,3.933a1.38,1.38,0,0,1,1.548-1.9L39.375,7.548a1.381,1.381,0,0,1,1.024.913L45.918,25.02a1.379,1.379,0,0,1-1.308,1.819Zm-21.18-2.76H42.7L38.031,10.087,15.22,5.283Z" transform="translate(20.242 -1.998)" fill="#fff"/>
      <path id="Path_18" data-name="Path 18" d="M23.463,26.839H1.38A1.379,1.379,0,0,1,.072,25.02L5.592,8.463a1.381,1.381,0,0,1,1.024-.913L32.824,2.03a1.38,1.38,0,0,1,1.548,1.9L24.727,26.011A1.378,1.378,0,0,1,23.463,26.839ZM3.3,24.079H22.561l8.21-18.8-22.811,4.8Z" transform="translate(0 -1.999)" fill="#fff"/>
    </g>
  </g>
</svg>
